<?xml version="1.0" encoding="utf-8"?>

<!DOCTYPE svg PUBLIC "-//W3C//DTD SVG 1.1//EN" "http://www.w3.org/Graphics/SVG/1.1/DTD/svg11.dtd">
<svg version="1.1" id="header" xmlns="http://www.w3.org/2000/svg" xmlns:xlink="http://www.w3.org/1999/xlink" x="0px" y="0px"
width="978px" height="28px" viewBox="0 0 978 28" enable-background="new 0 0 978 30" xml:space="preserve">
	<g>
		<path d="M20.584,0.294v22.84h-1.454L1.766,3.171v19.963H0V0.294h1.496l17.323,19.963V0.294H20.584z"/>
		<path d="M34.556,0.131l10.56,23.004h-1.853l-3.613-7.896h-11.17l-3.6,7.896h-1.853L33.585,0.131H34.556z M38.976,13.766
		L34.054,3.008l-4.905,10.758H38.976z"/>
		<path d="M58.021,10.902l8.677-10.608h1.787v22.84h-1.782V2.877l-8.69,10.676L49.291,2.877v20.257h-1.766V0.294h1.766L58.021,10.902
		z"/>
		<path d="M86.074,0.294v1.472H75.382v9.139h10.414v1.488H75.382v9.271h10.954v1.471h-12.72V0.294H86.074z"/>
		<path d="M89.392,0.294h4.757c2.496,0,4.388,0.523,5.673,1.569c1.286,1.046,1.929,2.491,1.929,4.333
		c0,2.202-1.095,3.896-3.286,5.084c3.521,0.763,5.281,2.691,5.281,5.787c0,1.854-0.69,3.328-2.068,4.422
		c-1.379,1.098-3.246,1.645-5.6,1.645h-6.687V0.294z M91.157,1.766v9.106h2.452c4.153,0,6.229-1.515,6.229-4.545
		c0-3.042-2.099-4.562-6.295-4.562H91.157z M91.157,12.36v9.304h4.725c1.951,0,3.433-0.422,4.447-1.26
		c1.014-0.84,1.52-1.961,1.52-3.369c0-3.116-2.245-4.675-6.736-4.675H91.157z"/>
		<path d="M117.786,0c3.376,0,6.238,1.136,8.585,3.409c2.348,2.272,3.522,5.044,3.522,8.314c0,3.258-1.174,6.025-3.522,8.296
		c-2.347,2.273-5.208,3.408-8.585,3.408c-3.366,0-6.218-1.135-8.554-3.408c-2.336-2.271-3.504-5.039-3.504-8.296
		c0-3.27,1.168-6.042,3.504-8.314C111.568,1.136,114.42,0,117.786,0z M117.852,21.793c2.842,0,5.241-0.971,7.196-2.918
		c1.954-1.945,2.933-4.33,2.933-7.152c0-2.834-0.979-5.224-2.933-7.17c-1.955-1.945-4.354-2.918-7.196-2.918
		c-2.854,0-5.269,0.973-7.246,2.918c-1.976,1.946-2.964,4.335-2.964,7.17c0,2.822,0.988,5.207,2.964,7.152
		C112.583,20.822,114.998,21.793,117.852,21.793z"/>
		<path d="M150.78,0.294h1.765v12.458c0,3.411-0.888,6.044-2.664,7.897c-1.777,1.852-4.077,2.777-6.9,2.777
		c-2.812,0-5.106-0.914-6.883-2.746c-1.777-1.83-2.665-4.338-2.665-7.52V0.294h1.782v12.802c0,2.724,0.723,4.855,2.167,6.392
		c1.444,1.537,3.311,2.305,5.6,2.305c2.311,0,4.188-0.775,5.632-2.33c1.445-1.553,2.167-3.756,2.167-6.612V0.294z"/>
		<path d="M177.885,0.294v22.84h-1.453L159.066,3.171v19.963h-1.766V0.294h1.497l17.322,19.963V0.294H177.885z"/>
		<path d="M182.996,0.294h7.989c4.039,0,7.125,1.062,9.254,3.188c2.129,2.125,3.194,4.872,3.194,8.24
		c0,3.302-1.053,6.031-3.161,8.181c-2.108,2.154-5.1,3.23-8.978,3.23h-8.299V0.294z M184.762,1.766v19.898h6.435
		c2.951,0,5.409-0.908,7.375-2.723c1.966-1.816,2.948-4.222,2.948-7.218c0-2.933-0.969-5.325-2.907-7.178
		c-1.938-1.853-4.448-2.779-7.53-2.779H184.762z"/>
		<g>
			<path d="M109.03,11.109h8.044V3.081h1.471v8.028h8.028v1.472h-8.028v8.043h-1.471v-8.043h-8.044V11.109z"/>
		</g>
		</g>
	
	
</svg>
